<svg xmlns="http://www.w3.org/2000/svg" width="100" height="35" viewBox="0 0 100 35"><g fill="none" fill-rule="nonzero"><path class="svg-red" fill="#FF4800" d="M45.225 22.734a4.674 4.674 0 0 0-4.671 4.67 4.674 4.674 0 0 0 4.67 4.672 4.674 4.674 0 0 0 4.672-4.671 4.674 4.674 0 0 0-4.671-4.671z"></path><path class="svg-grey" fill="#3E3E3E" d="M27.44 12.837C27.44 5.19 21.902.138 13.805.138H.554v34.706h6.09v-8.927h6.47c7.647 0 14.325-4.464 14.325-12.976v-.104zm-6.194.104c0 6.678-5.606 7.405-7.993 7.405H6.678V5.709h7.232c2.734 0 7.336.935 7.336 7.128v.104zm23.979-.934L33.529 34.879h-6.54L44.776.139h.934l17.786 34.705h-6.54l-11.73-22.837zM99.654.138v34.706h-.969L75.398 12.837v22.007h-5.986V.138h.969l23.287 21.8V.138h5.986z"></path></g></svg>