<svg xmlns="http://www.w3.org/2000/svg" width="70" height="70" viewBox="0 0 70 70">
    <g fill="none" fill-rule="nonzero">
        <path class="play-button" fill="#008C99" d="M44.939 33.447l-14.412-9.583c-1.236-.824-2.883.075-2.883 1.534v19.166c0 1.497 1.666 2.358 2.883 1.535l14.412-9.583c1.085-.692 1.085-2.34 0-3.07z"></path>
        <g fill="#3E3E3E">
            <path class="text-rotation" d="M15.816 13.925L11.79 8.928l1.067-.861 3.313 4.117 2.022-1.628.71.88zM23.62 5.278c.468.955.6 1.797.393 2.546-.224.748-.767 1.328-1.647 1.778-.88.43-1.684.524-2.414.243-.73-.28-1.329-.898-1.797-1.853-.468-.955-.599-1.797-.374-2.545.224-.75.767-1.33 1.647-1.779.88-.449 1.684-.524 2.396-.243.73.28 1.328.899 1.796 1.853zm-4.192 2.096c.318.637.674 1.067 1.085 1.273.412.206.843.187 1.33-.056.973-.487 1.141-1.366.486-2.658-.636-1.291-1.441-1.703-2.415-1.216-.486.243-.767.58-.842 1.029-.075.45.038.973.356 1.628zM28.45.711l1.328-.318-.636 6.738-1.441.356-3.594-5.746 1.329-.319 2.059 3.444c.112.206.243.45.393.712.13.28.224.467.28.58-.037-.262-.037-.749 0-1.441L28.45.71zM35.842 6.476l-3.687.15-.262-6.401 3.687-.15.038 1.104-2.34.094.056 1.403 2.171-.093.038 1.104-2.171.094.075 1.647 2.34-.094zM42.636 3.668l1.928-2.246 1.423.337-2.995 3.313-.58 2.433-1.31-.318.58-2.377L40.54.468l1.441.356zM51.901 8.03c-.468.954-1.067 1.553-1.797 1.834-.73.28-1.534.187-2.414-.244-.88-.43-1.423-1.03-1.647-1.778-.225-.748-.094-1.59.393-2.545.486-.955 1.085-1.572 1.797-1.834.73-.262 1.534-.188 2.414.262.88.449 1.423 1.029 1.647 1.778.206.73.075 1.572-.393 2.526zM47.71 5.932c-.319.637-.45 1.18-.356 1.628.094.45.356.787.842 1.03.973.487 1.778.075 2.415-1.198.655-1.291.486-2.171-.487-2.658-.487-.243-.936-.262-1.348-.056-.374.187-.748.618-1.066 1.254zM59.668 10.22l-2.695 3.144c-.3.355-.655.599-1.048.748-.393.131-.805.15-1.235.019-.43-.112-.842-.356-1.273-.711-.618-.543-.973-1.104-1.048-1.722-.075-.618.131-1.198.618-1.76l2.695-3.144 1.03.88-2.546 2.976c-.318.374-.487.711-.487 1.03 0 .299.169.598.524.898.337.28.655.411.955.355.3-.056.617-.262.936-.636l2.545-2.976 1.03.898zM59.35 15.91l-1.965 1.459-.805-1.086 5.147-3.836 1.123 1.497c.524.692.786 1.31.768 1.834 0 .524-.262.973-.786 1.366a1.78 1.78 0 0 1-.992.356c-.356 0-.712-.094-1.086-.3a423.67 423.67 0 0 0-1.123 3.182l-.898-1.216 1.066-2.695-.449-.562zm.88-.656l.262.356c.262.337.505.561.749.636.243.075.486.019.73-.15.243-.187.355-.393.336-.636-.018-.243-.168-.543-.43-.899l-.243-.336-1.404 1.029zM67.099 24.257c-.169-.487-.487-.786-.936-.917-.45-.131-1.01-.094-1.647.15-1.348.486-1.834 1.235-1.479 2.245.15.43.45.899.861 1.423l-1.066.374a4.522 4.522 0 0 1-.899-1.553c-.318-.88-.28-1.647.075-2.303.374-.655 1.048-1.16 2.04-1.516.636-.224 1.217-.299 1.778-.243.562.056 1.03.262 1.441.599.412.337.712.786.917 1.366.206.58.281 1.236.206 1.928l-1.197-.037c.018-.262.037-.524.037-.786a2.678 2.678 0 0 0-.131-.73zM63.43 32.866l1.46-.655-.3-2.32-1.571-.263-.187-1.46 6.681 1.404.225 1.647-6.083 3.088-.225-1.44zm2.546-1.141c1.31-.6 2.059-.955 2.227-1.03.169-.075.318-.13.412-.168-.374-.038-1.329-.206-2.864-.468l.225 1.666zM65.882 36.74l-2.452-.205.113-1.348 6.4.524-.149 1.872c-.075.86-.28 1.497-.636 1.89-.356.393-.842.562-1.498.506a1.743 1.743 0 0 1-.973-.393c-.28-.225-.486-.543-.617-.936-1.517.842-2.49 1.403-2.939 1.647l.131-1.498 2.583-1.328.037-.73zm1.105.076l-.038.43c-.037.43.019.749.131.973.131.225.337.337.655.356.3.019.524-.056.674-.262.15-.206.243-.524.28-.955l.038-.411-1.74-.131zM61.84 44.676l1.01-3.556 6.177 1.76-1.011 3.556-1.067-.3.637-2.246-1.348-.393-.599 2.097-1.067-.3.6-2.096-1.592-.45-.636 2.247zM59.668 49.318l1.629-3.313 5.746 2.827-1.629 3.312-.992-.486 1.03-2.097-1.273-.617-.954 1.946-.992-.486.954-1.947-1.478-.73-1.03 2.097zM60.061 53.099l-1.946-1.497.824-1.086 5.09 3.893-1.141 1.479c-.524.692-1.048 1.104-1.554 1.254-.505.13-1.01.018-1.535-.375a1.76 1.76 0 0 1-.617-.86c-.112-.337-.112-.712-.019-1.124-1.74-.112-2.845-.168-3.369-.205l.917-1.198 2.883.28.467-.561zm.88.674l-.262.355c-.262.337-.393.637-.412.88-.018.243.113.468.356.655s.468.225.711.15c.225-.094.468-.3.749-.655l.243-.337-1.385-1.048zM49.056 59.8l2.826 5.764-1.216.6-2.321-4.755-2.34 1.142-.486-1.01zM39.51 66.481c-.243-1.03-.186-1.89.188-2.564.374-.674 1.048-1.142 2.003-1.366.954-.225 1.759-.131 2.395.3.655.43 1.086 1.16 1.348 2.208.243 1.03.187 1.89-.187 2.564-.375.674-1.048 1.123-2.003 1.348-.955.224-1.76.13-2.396-.3-.636-.43-1.085-1.16-1.347-2.19zm4.568-1.104c-.169-.693-.43-1.198-.787-1.479-.355-.28-.786-.374-1.31-.243-1.048.262-1.403 1.086-1.067 2.49.337 1.403 1.03 1.983 2.078 1.721.524-.13.88-.393 1.067-.823.187-.43.187-.973.019-1.666zM33.858 69.869l-1.366.019 2.078-6.458 1.478-.018 2.284 6.382-1.367.019-1.272-3.8a10.79 10.79 0 0 1-.225-.786c-.075-.3-.131-.505-.15-.617-.019.262-.13.748-.3 1.422l-1.16 3.837zM27.869 62.607l3.631.674-1.16 6.307-3.631-.674.205-1.104 2.303.43.262-1.384-2.134-.393.206-1.105 2.133.393.3-1.628-2.302-.43zM20.626 63.824l-2.377 1.759-1.31-.655 3.65-2.546 1.122-2.227 1.217.599-1.104 2.19.13 4.492-1.31-.655zM12.559 57.516c.674-.823 1.404-1.291 2.17-1.385.768-.094 1.536.15 2.284.767.768.618 1.16 1.33 1.198 2.097.038.767-.28 1.572-.954 2.395-.674.824-1.404 1.292-2.171 1.385-.768.094-1.535-.168-2.284-.786-.767-.617-1.16-1.329-1.198-2.096-.037-.749.281-1.553.955-2.377zm3.612 2.976c.45-.562.693-1.048.711-1.516.02-.45-.187-.842-.599-1.198-.842-.692-1.722-.468-2.639.636-.917 1.123-.954 2.022-.13 2.696.411.337.842.468 1.29.355.45-.112.918-.412 1.367-.973zM5.465 53.66l3.332-2.47c.374-.28.767-.45 1.198-.487.411-.037.823.038 1.198.244.393.205.748.524 1.085.973.487.655.711 1.31.636 1.928-.074.617-.393 1.141-.992 1.59L8.61 57.91l-.805-1.085 3.144-2.359c.393-.3.637-.599.693-.88.075-.299-.038-.636-.318-.991-.263-.356-.543-.543-.861-.562-.3-.019-.656.112-1.049.412l-3.144 2.34-.805-1.124zM7.037 48.176l2.246-.992.543 1.236-5.877 2.583-.748-1.704c-.356-.804-.468-1.46-.337-1.965.13-.505.486-.898 1.066-1.16.337-.15.693-.187 1.049-.113.355.075.673.244.992.525.935-1.46 1.534-2.415 1.796-2.845l.618 1.385-1.628 2.395.28.655zm-1.01.45l-.169-.393c-.168-.393-.374-.655-.58-.786-.206-.131-.468-.131-.749 0-.28.13-.43.299-.468.542-.037.244.038.562.225.974l.169.374 1.572-.711zM7.019 40.39l-6.364.824-.168-1.348 5.24-.673-.337-2.583 1.123-.15zM6.55 35.206l-6.419-.112.019-1.367 6.42.113zM6.869 30.751l-.206 1.33L.337 31.07l.58-3.631 1.104.168-.374 2.302 1.628.262.337-2.152 1.105.168-.337 2.153zM8.834 23.658L7.6 27.139l-6.046-2.134 1.236-3.48 1.048.373-.767 2.209 1.328.468.73-2.04 1.048.374-.748 2.04 1.553.543.768-2.209z" style="transform: rotate(166.5deg);"></path>
        </g>
    </g>
</svg>